<svg fill="none" class="rubicons users" xmlns="http://www.w3.org/2000/svg" width="32" height="32" viewBox="0 0 24 24" stroke="rgb(214, 214, 214)" stroke-width="1.5">
  <path d="M10.412 15.706c2.3389 0 4.235-1.8961 4.235-4.235 0-2.339-1.8961-4.235-4.235-4.235-2.339 0-4.235 1.896-4.235 4.235 0 2.3389 1.896 4.235 4.235 4.235zM3 21a7.384 7.384 0 014.256-6.7M13.567 14.3a7.3848 7.3848 0 014.257 6.7M16.31 10.26A7.3253 7.3253 0 0121 16.82" stroke-linecap="round" stroke-linejoin="round"></path>
  <path d="M14.61 10.95A4 4 0 1010 7a2.2636 2.2636 0 00.01.26" stroke-linecap="round" stroke-linejoin="round"></path>
</svg>